<svg width="512" height="512" viewBox="0 0 512 512" xmlns="http://www.w3.org/2000/svg">
  <rect width="512" height="512" fill="#FFE600"/>
  <path d="M46.99 0L8.56 0L8.56-193.25L46.99-193.25L46.99-124.18L65.22-124.18L65.22-193.25L103.65-193.25L103.65 0L65.22 0L65.22-87.62L46.99-87.62L46.99 0M153.06 0L115.51 0L134.18-193.25L199.73-193.25L218.06 0L181.50 0L178.75-31.18L155.48-31.18L153.06 0M165.58-160.31L158.22-62.04L175.79-62.04L167.33-160.31L165.58-160.31M282.29 0L243.65 0L243.65-156.14L220.70-156.14L220.70-193.25L305.24-193.25L305.24-156.14L282.29-156.14L282.29 0M395.83 0L316 0L316-193.25L393.30-193.25L393.30-155.92L355.31-155.92L355.31-118.25L391.77-118.25L391.77-81.91L355.31-81.91L355.31-37.66L395.83-37.66" transform="translate(53.80,246.62)" fill="#000000"/>
  <g transform="rotate(-3 256 350)">
    <rect x="103.2" y="268.5" width="331.7" height="188.9" fill="#000000"/>
    <rect x="90.2" y="255.5" width="331.7" height="188.9" fill="#FF2D6F" stroke="#000000" stroke-width="14"/>
    <path d="M56.98 0L5.61 0L5.61-126.62L30.94-126.62L30.94-21.58L56.98-21.58L56.98 0M94.39 1.15Q79.21 1.15 71.19-8.02Q63.17-17.19 63.17-34.53L63.17-94.68Q63.17-110.94 71.12-119.35Q79.06-127.77 94.39-127.77Q109.71-127.77 117.66-119.35Q125.61-110.94 125.61-94.68L125.61-34.53Q125.61-17.19 117.59-8.02Q109.57 1.15 94.39 1.15M94.60-22.16Q100.36-22.16 100.36-33.31L100.36-95.11Q100.36-104.46 94.75-104.46Q88.42-104.46 88.42-94.89L88.42-33.17Q88.42-27.27 89.86-24.71Q91.29-22.16 94.60-22.16M182.01 0L147.48 0L131.87-126.69L155.97-126.69L165.25-40.50L173.53-126.69L197.63-126.69L182.01 0M257.27 0L204.96 0L204.96-126.62L255.61-126.62L255.61-102.16L230.72-102.16L230.72-77.48L254.60-77.48L254.60-53.67L230.72-53.67L230.72-24.68L257.27-24.68" transform="translate(124.56,413.31)" fill="#FFFFFF"/>
  </g>
</svg>
