<svg width="512" height="512" viewBox="0 0 512 512" xmlns="http://www.w3.org/2000/svg">
  <rect width="512" height="512" fill="#FFE600"/>
  <path d="M87.66 0L8.63 0L8.63-194.80L47.59-194.80L47.59-33.20L87.66-33.20L87.66 0M145.21 1.77Q121.86 1.77 109.52-12.34Q97.18-26.45 97.18-53.13L97.18-145.66Q97.18-170.67 109.41-183.62Q121.64-196.57 145.21-196.57Q168.79-196.57 181.02-183.62Q193.25-170.67 193.25-145.66L193.25-53.13Q193.25-26.45 180.91-12.34Q168.57 1.77 145.21 1.77M145.55-34.09Q154.40-34.09 154.40-51.25L154.40-146.32Q154.40-160.71 145.77-160.71Q136.03-160.71 136.03-145.99L136.03-51.02Q136.03-41.95 138.24-38.02Q140.45-34.09 145.55-34.09M280.02 0L226.90 0L202.88-194.91L239.96-194.91L254.23-62.31L266.96-194.91L304.04-194.91L280.02 0M395.79 0L315.33 0L315.33-194.80L393.25-194.80L393.25-157.17L354.95-157.17L354.95-119.20L391.70-119.20L391.70-82.57L354.95-82.57L354.95-37.96L395.79-37.96" transform="translate(53.79,247.40)" fill="#000000"/>
  <g transform="rotate(-3 256 350)">
    <rect x="103.1" y="270.2" width="331.7" height="185.6" fill="#000000"/>
    <rect x="90.1" y="257.2" width="331.7" height="185.6" fill="#FF2D6F" stroke="#000000" stroke-width="14"/>
    <path d="M30.55 0L5.57 0L5.57-125.61L30.55-125.61L30.55-80.72L42.39-80.72L42.39-125.61L67.37-125.61L67.37 0L42.39 0L42.39-56.95L30.55-56.95L30.55 0M99.49 0L75.08 0L87.21-125.61L129.82-125.61L141.74 0L117.97 0L116.19-20.27L101.06-20.27L99.49 0M107.63-104.20L102.84-40.32L114.26-40.32L108.77-104.20L107.63-104.20M183.49 0L158.37 0L158.37-101.49L143.45-101.49L143.45-125.61L198.41-125.61L198.41-101.49L183.49-101.49L183.49 0M257.29 0L205.40 0L205.40-125.61L255.65-125.61L255.65-101.35L230.95-101.35L230.95-76.87L254.65-76.87L254.65-53.24L230.95-53.24L230.95-24.48L257.29-24.48" transform="translate(124.57,412.81)" fill="#FFFFFF"/>
  </g>
</svg>
