<svg width="512" height="512" viewBox="0 0 512 512" xmlns="http://www.w3.org/2000/svg">
  <rect width="512" height="512" fill="#FFE600"/>
  <path d="M50.53 1.63Q25.98 1.63 15.13-10.60Q4.28-22.82 4.28-49.52L4.28-67.04L39.74-67.04L39.74-44.63Q39.74-38.41 41.62-34.90Q43.50-31.38 48.19-31.38Q53.08-31.38 54.97-34.23Q56.85-37.09 56.85-43.61Q56.85-51.86 55.22-57.41Q53.59-62.96 49.57-68.01Q45.54-73.05 38.41-79.78L22.31-95.06Q4.28-112.07 4.28-133.98Q4.28-156.90 14.93-168.93Q25.57-180.95 45.75-180.95Q70.40-180.95 80.74-167.80Q91.09-154.66 91.09-127.87L54.61-127.87L54.61-140.19Q54.61-143.86 52.52-145.90Q50.43-147.94 46.87-147.94Q42.59-147.94 40.60-145.54Q38.61-143.15 38.61-139.38Q38.61-135.61 40.65-131.23Q42.69-126.85 48.70-121.14L69.38-101.27Q75.60-95.36 80.79-88.79Q85.99-82.22 89.15-73.51Q92.31-64.80 92.31-52.27Q92.31-27 82.99-12.68Q73.66 1.63 50.53 1.63M139.28 0L104.23 0L104.23-179.32L141.11-179.32L157.62-93.43L157.62-179.32L192.26-179.32L192.26 0L157.21 0L139.28-89.66L139.28 0M238.10 0L203.26 0L220.58-179.32L281.41-179.32L298.42 0L264.49 0L261.95-28.94L240.35-28.94L238.10 0M249.72-148.75L242.89-57.56L259.20-57.56L251.35-148.75L249.72-148.75M344.68 0L309.42 0L309.42-179.32L356.80-179.32Q371.68-179.32 380.39-172.69Q389.10-166.07 392.87-153.85Q396.64-141.62 396.64-124.71Q396.64-108.41 393.48-96.33Q390.32-84.26 382.22-77.64Q374.12-71.01 359.25-71.01L344.68-71.01L344.68 0M344.68-146.61L344.68-103.21L346.71-103.21Q356.70-103.21 358.94-108.81Q361.18-114.42 361.18-125.32Q361.18-135.51 358.99-141.06Q356.80-146.61 348.65-146.61" transform="translate(55.54,239.66)" fill="#000000"/>
  <g transform="rotate(-3 256 350)">
    <rect x="126.0" y="265.7" width="285.9" height="194.6" fill="#000000"/>
    <rect x="113.0" y="252.7" width="285.9" height="194.6" fill="#FF2D6F" stroke="#000000" stroke-width="14"/>
    <path d="M44.45 0L17.52 0L17.52-108.79L1.53-108.79L1.53-134.64L60.44-134.64L60.44-108.79L44.45-108.79L44.45 0M88.44 0L62.27 0L75.28-134.64L120.95-134.64L133.73 0L108.25 0L106.34-21.73L90.12-21.73L88.44 0M97.16-111.69L92.03-43.22L104.27-43.22L98.38-111.69L97.16-111.69M168.46 0L141.99 0L141.99-134.64L177.56-134.64Q188.73-134.64 195.27-129.67Q201.81-124.70 204.64-115.52Q207.48-106.34 207.48-93.64Q207.48-81.40 205.10-72.33Q202.73-63.27 196.65-58.30Q190.57-53.32 179.40-53.32L168.46-53.32L168.46 0M168.46-110.09L168.46-77.50L169.99-77.50Q177.49-77.50 179.17-81.70Q180.85-85.91 180.85-94.10Q180.85-101.75 179.21-105.92Q177.56-110.09 171.44-110.09" transform="translate(151.50,417.32)" fill="#FFFFFF"/>
  </g>
</svg>
